<?xml version="1.0" encoding="UTF-8"?>
<svg id="_レイヤー_2" data-name="レイヤー 2" xmlns="http://www.w3.org/2000/svg" viewBox="0 0 73.27 93.61">
  <defs>
    <style>
      .cls-1 {
        fill: #231815;
        stroke-width: 0px;
      }

      .cls-2 {
        fill: none;
        stroke: #231815;
        stroke-miterlimit: 10;
        stroke-width: .75px;
      }
    </style>
  </defs>
  <g id="_レイヤー_1-2" data-name="レイヤー 1">
    <path class="cls-2" d="m72.9,46.8c0,25.64-16.58,46.43-37.03,46.43S.38,77.05.38,51.41c0-9.5,13.26-13.78,17.93-28.3C22.98,8.58,26.85.36,35.87.38c18.86.02,37.03,22.48,37.03,46.43Z"/>
    <g>
      <path class="cls-1" d="m37.4,44.73c0,.11-.06.16-.17.16l-2.72-.04h-12.32l-2.73.04c-.11,0-.16-.05-.16-.16v-.96c0-.11.05-.16.16-.16l2.73.04h5.26v-.79c0-1.01-.05-1.71-.15-2.1.39,0,.86.04,1.41.13.17.02.25.07.25.16,0,.05-.04.18-.12.38-.07.18-.1.66-.1,1.45v.77h5.77l2.72-.04c.11,0,.17.05.17.16v.96Zm-.97,13.73s.03.08.03.11c0,.05-.07.12-.22.2l-.66.36c-.14.07-.22.1-.25.1-.04,0-.08-.04-.12-.13-.41-.79-.81-1.49-1.21-2.11-4.07.62-8.25,1.12-12.55,1.51-.41.04-.67.09-.77.15-.14.08-.26.12-.38.12s-.2-.1-.26-.31c-.1-.32-.2-.75-.29-1.29.3.01.57.02.8.02.46,0,.95-.02,1.48-.06.49-.03.86-.05,1.11-.08,1.08-1.02,2.22-2.15,3.43-3.41-1.5-1.73-3.09-3.26-4.76-4.62-.05-.04-.08-.08-.08-.11,0-.05.06-.12.18-.23l.5-.49c.09-.09.16-.13.2-.13.03,0,.07.02.13.07.93.78,1.42,1.18,1.45,1.21.81-.95,1.57-1.95,2.27-3.01.24-.39.46-.84.64-1.37.41.16.83.37,1.25.62.14.09.2.19.2.29,0,.1-.08.19-.24.29-.18.1-.39.33-.63.7-.74,1.09-1.61,2.19-2.6,3.31.86.79,1.66,1.62,2.42,2.48,1.29-1.41,2.28-2.56,2.97-3.47.64-.82,1.08-1.53,1.33-2.12.45.25.86.51,1.23.79.13.09.2.19.2.3,0,.09-.09.19-.27.29-.23.12-.55.43-.95.93-1.93,2.44-4.29,4.95-7.08,7.53,2.97-.3,5.76-.64,8.37-1.03-.47-.66-1.06-1.38-1.75-2.16-.04-.04-.06-.07-.06-.1,0-.04.06-.1.19-.18l.54-.33c.08-.06.14-.09.19-.09.03,0,.08.03.14.09,1.51,1.67,2.8,3.46,3.89,5.36Z"/>
      <path class="cls-1" d="m58.75,56.23c-.2.2-.4.49-.6.87-.13.21-.22.32-.27.32s-.16-.05-.31-.14c-3.5-1.83-6.18-4.21-8.04-7.11,0,2.36.02,4.69.06,6.98,0,.37.02.86.03,1.48,0,.33,0,.53,0,.6,0,.11-.05.16-.16.16h-1.09c-.11,0-.16-.05-.16-.16,0-.05,0-.5.02-1.35.05-2.5.07-5.04.08-7.61-1.86,2.91-4.37,5.24-7.54,7-.17.08-.27.12-.32.12-.07,0-.17-.1-.29-.29-.22-.35-.42-.61-.62-.76,1.74-.79,3.38-1.87,4.92-3.24,1.33-1.17,2.42-2.41,3.27-3.7h-4.62l-2.76.04c-.12,0-.17-.05-.17-.16v-.9c0-.11.06-.16.17-.16l2.76.04h5.16v-4.99c0-1.09-.05-1.9-.14-2.42.53.02,1,.06,1.41.12.18.02.27.08.27.17,0,.07-.02.16-.05.25-.04.12-.06.2-.07.22-.09.3-.13.85-.13,1.63v5.01h5.55l2.74-.04c.12,0,.17.05.17.16v.9c0,.11-.06.16-.17.16l-2.74-.04h-5.05c2.1,2.95,5,5.23,8.69,6.84Zm-12.99-10.05s.03.07.03.1c0,.05-.06.11-.19.19l-.6.4c-.13.07-.21.1-.24.1-.05,0-.09-.04-.13-.12-.57-1.22-1.35-2.45-2.33-3.66-.03-.04-.05-.07-.05-.09,0-.03.08-.09.24-.19l.56-.36c.06-.05.11-.07.15-.07.03,0,.08.03.14.09.97,1.12,1.78,2.33,2.43,3.61Zm10.21-3.1c0,.09-.07.19-.2.29-.1.06-.23.23-.38.52-.61,1.17-1.28,2.21-2.02,3.12-.13.17-.22.25-.27.25-.04,0-.14-.06-.3-.19-.26-.19-.5-.31-.73-.36,1.01-1.29,1.74-2.44,2.18-3.45.16-.34.26-.67.31-.97.54.2.94.38,1.21.54.13.09.2.18.2.25Z"/>
    </g>
  </g>
</svg>