<?xml version="1.0" encoding="UTF-8"?>
<svg id="_レイヤー_2" data-name="レイヤー 2" xmlns="http://www.w3.org/2000/svg" viewBox="0 0 120 120">
  <defs>
    <style>
      .cls-1 {
        fill: #fff;
      }

      .cls-2 {
        fill: #dab300;
      }

      .cls-3 {
        fill: none;
      }
    </style>
  </defs>
  <g id="_レイヤー_1-2" data-name="レイヤー 1">
    <g>
      <g>
        <g>
          <path class="cls-1" d="m45.56,4.92c4.23,0,7.67,3.44,7.67,7.67v.14h-.14c-4.22,0-7.66-3.44-7.66-7.66v-.14h.14m0-2.28h-2.42v2.42c0,5.49,4.45,9.94,9.94,9.94h2.42v-2.42c0-5.5-4.45-9.95-9.95-9.95h0Z"/>
          <path class="cls-1" d="m32.81,17.67c4.23,0,7.67,3.44,7.67,7.67v.14h-.14c-4.22,0-7.66-3.44-7.66-7.66v-.14h.14m0-2.28h-2.42v2.42c0,5.49,4.45,9.94,9.94,9.94h2.42v-2.42c0-5.5-4.45-9.95-9.95-9.95h0Z"/>
          <path class="cls-1" d="m20.06,30.42c4.23,0,7.67,3.44,7.67,7.67v.14h-.14c-4.22,0-7.66-3.44-7.66-7.66v-.14h.14m0-2.28h-2.42v2.42c0,5.49,4.45,9.94,9.94,9.94h2.42v-2.42c0-5.5-4.45-9.95-9.95-9.95h0Z"/>
          <path class="cls-1" d="m65.99,4.92v.14c0,4.22-3.44,7.66-7.66,7.66h-.14v-.14c0-4.23,3.44-7.67,7.67-7.67h.14m2.28-2.28h-2.42c-5.5,0-9.95,4.45-9.95,9.95v2.42h2.42c5.49,0,9.94-4.45,9.94-9.94v-2.42h0Z"/>
          <path class="cls-1" d="m78.74,17.67v.14c0,4.22-3.44,7.66-7.66,7.66h-.14v-.14c0-4.23,3.44-7.67,7.67-7.67h.14m2.28-2.28h-2.42c-5.5,0-9.95,4.45-9.95,9.95v2.42h2.42c5.49,0,9.94-4.45,9.94-9.94v-2.42h0Z"/>
          <path class="cls-1" d="m91.49,30.42v.14c0,4.22-3.44,7.66-7.66,7.66h-.14v-.14c0-4.23,3.44-7.67,7.67-7.67h.14m2.28-2.28h-2.42c-5.5,0-9.95,4.45-9.95,9.95v2.42h2.42c5.49,0,9.94-4.45,9.94-9.94v-2.42h0Z"/>
          <path class="cls-1" d="m53.23,17.67v.14c0,4.23-3.44,7.67-7.67,7.67h-.14v-.14c0-4.22,3.44-7.66,7.66-7.66h.14m2.28-2.28h-2.42c-5.49,0-9.94,4.45-9.94,9.94v2.42h2.42c5.5,0,9.95-4.45,9.95-9.95v-2.42h0Z"/>
          <path class="cls-1" d="m58.32,17.67c4.22,0,7.66,3.44,7.66,7.66v.14h-.14c-4.23,0-7.67-3.44-7.67-7.67v-.14h.14m0-2.28h-2.42v2.42c0,5.5,4.45,9.95,9.95,9.95h2.42v-2.42c0-5.49-4.45-9.94-9.94-9.94h0Z"/>
          <path class="cls-1" d="m53.23,68.68v.14c0,4.23-3.44,7.67-7.67,7.67h-.14v-.14c0-4.22,3.44-7.66,7.66-7.66h.14m2.28-2.28h-2.42c-5.49,0-9.94,4.45-9.94,9.94v2.42h2.42c5.5,0,9.95-4.45,9.95-9.95v-2.42h0Z"/>
          <path class="cls-1" d="m40.48,55.93v.14c0,4.23-3.44,7.67-7.67,7.67h-.14v-.14c0-4.22,3.44-7.66,7.66-7.66h.14m2.28-2.28h-2.42c-5.49,0-9.94,4.45-9.94,9.94v2.42h2.42c5.5,0,9.95-4.45,9.95-9.95v-2.42h0Z"/>
          <path class="cls-1" d="m58.32,68.68c4.22,0,7.66,3.44,7.66,7.66v.14h-.14c-4.23,0-7.67-3.44-7.67-7.67v-.14h.14m0-2.28h-2.42v2.42c0,5.5,4.45,9.95,9.95,9.95h2.42v-2.42c0-5.49-4.45-9.94-9.94-9.94h0Z"/>
          <path class="cls-1" d="m71.08,55.93c4.22,0,7.66,3.44,7.66,7.66v.14h-.14c-4.23,0-7.67-3.44-7.67-7.67v-.14h.14m0-2.28h-2.42v2.42c0,5.5,4.45,9.95,9.95,9.95h2.42v-2.42c0-5.49-4.45-9.94-9.94-9.94h0Z"/>
          <path class="cls-1" d="m45.56,55.93c4.23,0,7.67,3.44,7.67,7.67v.14h-.14c-4.22,0-7.66-3.44-7.66-7.66v-.14h.14m0-2.28h-2.42v2.42c0,5.49,4.45,9.94,9.94,9.94h2.42v-2.42c0-5.5-4.45-9.95-9.95-9.95h0Z"/>
          <path class="cls-1" d="m65.99,55.93v.14c0,4.22-3.44,7.66-7.66,7.66h-.14v-.14c0-4.23,3.44-7.67,7.67-7.67h.14m2.28-2.28h-2.42c-5.5,0-9.95,4.45-9.95,9.95v2.42h2.42c5.49,0,9.94-4.45,9.94-9.94v-2.42h0Z"/>
          <path class="cls-1" d="m40.48,30.42v.14c0,4.23-3.44,7.67-7.67,7.67h-.14v-.14c0-4.22,3.44-7.66,7.66-7.66h.14m2.28-2.28h-2.42c-5.49,0-9.94,4.45-9.94,9.94v2.42h2.42c5.5,0,9.95-4.45,9.95-9.95v-2.42h0Z"/>
          <path class="cls-1" d="m71.08,30.42c4.22,0,7.66,3.44,7.66,7.66v.14h-.14c-4.23,0-7.67-3.44-7.67-7.67v-.14h.14m0-2.28h-2.42v2.42c0,5.5,4.45,9.95,9.95,9.95h2.42v-2.42c0-5.49-4.45-9.94-9.94-9.94h0Z"/>
          <path class="cls-1" d="m45.56,30.42c4.23,0,7.67,3.44,7.67,7.67v.14h-.14c-4.22,0-7.66-3.44-7.66-7.66v-.14h.14m0-2.28h-2.42v2.42c0,5.49,4.45,9.94,9.94,9.94h2.42v-2.42c0-5.5-4.45-9.95-9.95-9.95h0Z"/>
          <path class="cls-1" d="m65.99,30.42v.14c0,4.22-3.44,7.66-7.66,7.66h-.14v-.14c0-4.23,3.44-7.67,7.67-7.67h.14m2.28-2.28h-2.42c-5.5,0-9.95,4.45-9.95,9.95v2.42h2.42c5.49,0,9.94-4.45,9.94-9.94v-2.42h0Z"/>
          <path class="cls-1" d="m27.73,43.17v.14c0,4.23-3.44,7.67-7.67,7.67h-.14v-.14c0-4.22,3.44-7.66,7.66-7.66h.14m2.28-2.28h-2.42c-5.49,0-9.94,4.45-9.94,9.94v2.42h2.42c5.5,0,9.95-4.45,9.95-9.95v-2.42h0Z"/>
          <path class="cls-1" d="m83.83,43.17c4.22,0,7.66,3.44,7.66,7.66v.14h-.14c-4.23,0-7.67-3.44-7.67-7.67v-.14h.14m0-2.28h-2.42v2.42c0,5.5,4.45,9.95,9.95,9.95h2.42v-2.42c0-5.49-4.45-9.94-9.94-9.94h0Z"/>
          <path class="cls-1" d="m32.81,43.17c4.23,0,7.67,3.44,7.67,7.67v.14h-.14c-4.22,0-7.66-3.44-7.66-7.66v-.14h.14m0-2.28h-2.42v2.42c0,5.49,4.45,9.94,9.94,9.94h2.42v-2.42c0-5.5-4.45-9.95-9.95-9.95h0Z"/>
          <path class="cls-1" d="m78.74,43.17v.14c0,4.22-3.44,7.66-7.66,7.66h-.14v-.14c0-4.23,3.44-7.67,7.67-7.67h.14m2.28-2.28h-2.42c-5.5,0-9.95,4.45-9.95,9.95v2.42h2.42c5.49,0,9.94-4.45,9.94-9.94v-2.42h0Z"/>
          <path class="cls-1" d="m53.23,43.17v.14c0,4.23-3.44,7.67-7.67,7.67h-.14v-.14c0-4.22,3.44-7.66,7.66-7.66h.14m2.28-2.28h-2.42c-5.49,0-9.94,4.45-9.94,9.94v2.42h2.42c5.5,0,9.95-4.45,9.95-9.95v-2.42h0Z"/>
          <path class="cls-2" d="m64.87,44.01c2.75,2.75,3.78,6.18,2.3,7.66s-4.89.43-7.66-2.3c-2.4-2.37-3.27-5.4-2.69-7.01.15-.42.6-.61,1.07-.46.33.1.71.24.97.38.29.15.59.27.89.36.1.03.21.06.29.09.44.16.89.21,1.31.14.8-.13,2.24-.14,3.52,1.13Z"/>
        </g>
        <g>
          <g>
            <path class="cls-1" d="m24.1,113.27h1.26l1.18,3.16,1.15-3.16h1.22v.24h-.1c-.12,0-.21.01-.25.03-.04.02-.08.06-.1.11s-.04.14-.04.26v2.63c0,.17,0,.27.03.32.02.05.05.09.1.11.05.03.13.04.26.04h.1v.24h-1.53v-.24h.11c.1,0,.17,0,.21-.02.04-.02.08-.04.11-.08.03-.04.05-.07.05-.11,0-.08.01-.14.01-.18v-2.94l-1.3,3.57h-.29l-1.31-3.52v2.83c0,.14.01.24.04.29.02.05.06.09.12.12.05.03.15.04.28.04h.09v.24h-1.41v-.24h.08c.14,0,.23-.01.29-.04.06-.03.1-.07.12-.12.02-.05.04-.16.04-.31v-2.61c0-.15-.01-.24-.03-.29s-.06-.08-.1-.11c-.05-.02-.14-.03-.26-.03h-.14v-.24Z"/>
            <path class="cls-1" d="m30.74,113.27h1.53v.24h-.12c-.11,0-.19.02-.24.05s-.09.07-.11.13-.03.17-.03.33v2.57c0,.13.01.22.04.28.02.05.06.09.1.12.04.02.13.04.24.04h.12v.24h-1.53v-.24h.13c.11,0,.19-.01.24-.04.05-.03.08-.06.1-.11.02-.05.03-.14.03-.28v-2.63c0-.15-.01-.25-.03-.3-.02-.05-.05-.09-.1-.11-.05-.02-.13-.04-.24-.04h-.13v-.24Z"/>
            <path class="cls-1" d="m33.8,113.27h1.5v.24h-.17c-.1,0-.17,0-.2.03-.03.02-.04.05-.04.1,0,.04.02.09.05.16,0,.02.02.04.04.07l.78,1.44.86-1.5c.03-.06.05-.1.06-.12,0-.02.01-.04.01-.06,0-.03,0-.05-.02-.07-.01-.02-.04-.03-.07-.04-.02,0-.07,0-.16,0h-.15v-.24h1.24v.24c-.11,0-.19,0-.24.02-.05.02-.1.04-.13.07-.03.03-.08.1-.14.2l-1.08,1.8v1.01c0,.15.01.24.04.29.02.04.06.08.11.1.05.02.17.03.36.03v.24h-1.56v-.24h.12c.13,0,.21-.01.26-.03.04-.02.08-.06.1-.11.02-.04.03-.13.03-.27v-.9s-1.06-1.88-1.06-1.88c-.08-.15-.15-.24-.21-.27-.06-.03-.16-.05-.31-.05v-.24Z"/>
            <path class="cls-1" d="m40.59,113.27h.47l1.24,3.34c.06.17.12.28.18.33.06.05.15.08.25.08h.06v.24h-1.42v-.24s.09,0,.13,0c.09,0,.15,0,.18-.03.06-.04.08-.08.08-.14,0-.04-.03-.14-.08-.29l-.26-.77h-1.45l-.31.86c-.03.09-.05.15-.05.19,0,.04,0,.07.03.1s.05.05.08.06c.03.01.09.02.17.02.05,0,.09,0,.13,0v.24h-1.19v-.24c.11,0,.19-.01.24-.03.05-.02.09-.06.13-.11.04-.05.08-.15.14-.31l1.25-3.31Zm-.5,2.23h1.23l-.61-1.72-.62,1.72Z"/>
            <path class="cls-1" d="m44.81,113.27h2.78v.24l-2.61,3.45h.96c.44,0,.77-.07,1-.22.23-.15.43-.41.61-.8l.26.09-.46,1.24h-3.09v-.24l2.62-3.45h-.83c-.28,0-.5.03-.66.08s-.3.14-.43.25c-.12.11-.25.29-.38.54l-.25-.12.48-1.05Z"/>
            <path class="cls-1" d="m50.92,113.27h.47l1.24,3.34c.06.17.12.28.18.33s.15.08.25.08h.06v.24h-1.42v-.24s.09,0,.13,0c.09,0,.15,0,.18-.03.05-.04.08-.08.08-.14,0-.04-.03-.14-.08-.29l-.26-.77h-1.45l-.31.86c-.03.09-.05.15-.05.19,0,.04,0,.07.03.1.02.03.05.05.08.06.03.01.09.02.17.02.05,0,.09,0,.13,0v.24h-1.19v-.24c.11,0,.19-.01.24-.03.05-.02.09-.06.13-.11.04-.05.08-.15.14-.31l1.25-3.31Zm-.5,2.23h1.23l-.61-1.72-.62,1.72Z"/>
            <path class="cls-1" d="m54.73,113.27h1.54v.24h-.11c-.13,0-.21.02-.27.05-.05.03-.09.08-.11.14-.02.05-.03.13-.03.23v1.52l1.5-1.59c.08-.09.13-.14.14-.17.01-.03.02-.05.02-.08,0-.03-.02-.06-.05-.08s-.11-.03-.22-.03h-.09v-.24h1.43v.24c-.11,0-.21.01-.31.04s-.16.06-.22.1c-.12.09-.2.16-.25.21l-1.07,1.09,1.22,1.62c.11.15.2.25.26.3.07.05.13.09.2.11.07.02.18.03.32.03v.24h-1.7v-.24h.1c.11,0,.18,0,.2,0,.03,0,.06-.02.08-.05.02-.02.03-.05.03-.07,0-.05-.07-.16-.2-.34l-.9-1.22-.51.52v.76c0,.13.01.22.04.27s.07.08.12.11c.04.02.16.03.35.03v.24h-1.54v-.24h.12c.12,0,.2-.01.25-.04.04-.02.08-.06.1-.12.02-.06.04-.15.04-.3v-2.64c0-.14-.01-.23-.03-.29-.02-.05-.06-.09-.1-.11s-.14-.03-.28-.03h-.09v-.24Z"/>
            <path class="cls-1" d="m60.18,113.27h1.53v.24h-.12c-.11,0-.19.02-.24.05s-.09.07-.11.13-.03.17-.03.33v2.57c0,.13.01.22.04.28.02.05.06.09.1.12s.13.04.24.04h.12v.24h-1.53v-.24h.13c.11,0,.19-.01.24-.04.05-.03.08-.06.1-.11.02-.05.03-.14.03-.28v-2.63c0-.15,0-.25-.03-.3-.02-.05-.05-.09-.1-.11s-.13-.04-.24-.04h-.13v-.24Z"/>
            <path class="cls-1" d="m66.71,113.27h3.05l.37,1.05-.25.09c-.1-.24-.21-.42-.31-.53s-.22-.18-.35-.23c-.13-.05-.34-.07-.63-.07h-.86v1.53h.39c.21,0,.35-.02.44-.06s.16-.1.21-.19c.05-.09.07-.21.07-.37v-.11h.28v1.75h-.28v-.15c0-.15-.02-.27-.07-.35s-.11-.14-.19-.18c-.08-.04-.22-.06-.42-.06h-.44v1.24c0,.11.01.19.04.24.02.04.06.08.11.1.05.02.13.04.25.04h.11v.24h-1.52v-.24h.1c.12,0,.21-.01.25-.03s.08-.06.1-.11c.02-.05.03-.14.03-.27v-2.71c0-.12,0-.2-.03-.25s-.05-.08-.1-.11c-.04-.02-.12-.03-.22-.03h-.13v-.24Z"/>
            <path class="cls-1" d="m73.2,113.27h.47l1.24,3.34c.06.17.12.28.18.33s.15.08.25.08h.06v.24h-1.42v-.24s.09,0,.13,0c.09,0,.15,0,.18-.03.05-.04.08-.08.08-.14,0-.04-.03-.14-.08-.29l-.26-.77h-1.45l-.31.86c-.03.09-.05.15-.05.19,0,.04,0,.07.03.1.02.03.05.05.08.06.03.01.09.02.17.02.05,0,.09,0,.13,0v.24h-1.19v-.24c.11,0,.19-.01.24-.03.05-.02.09-.06.13-.11.04-.05.08-.15.14-.31l1.25-3.31Zm-.5,2.23h1.23l-.61-1.72-.62,1.72Z"/>
            <path class="cls-1" d="m77,113.27h2.06c.39,0,.69.04.89.12.2.08.35.2.46.35.11.15.16.33.16.53s-.05.39-.16.55c-.11.16-.26.29-.46.38-.2.09-.46.14-.79.14l1.06,1.29c.09.11.14.17.17.2.07.06.14.1.21.13.07.03.16.05.25.05h.07v.24h-.91l-1.47-1.91h-.51v1.23c0,.14,0,.22.01.26.02.07.05.11.1.14s.14.04.27.04h.1v.24h-1.53v-.24h.14c.1,0,.17,0,.21-.02s.07-.04.09-.07c.03-.03.05-.08.06-.13,0-.02,0-.12,0-.29v-2.61c0-.12-.01-.2-.03-.25s-.05-.09-.1-.11c-.04-.02-.11-.03-.21-.03h-.16v-.24Zm1.04.31v1.5h.82c.28,0,.48-.02.59-.05.16-.05.29-.13.38-.25.09-.12.14-.28.14-.47,0-.16-.03-.3-.1-.4-.07-.11-.16-.19-.27-.25-.12-.05-.29-.08-.52-.08h-1.04Z"/>
            <path class="cls-1" d="m82.51,113.27h1.26l1.18,3.16,1.15-3.16h1.22v.24h-.1c-.12,0-.21.01-.25.03-.04.02-.08.06-.1.11-.03.05-.04.14-.04.26v2.63c0,.17,0,.27.03.32.02.05.05.09.1.11.05.03.13.04.26.04h.1v.24h-1.53v-.24h.11c.1,0,.17,0,.21-.02s.08-.04.11-.08c.03-.04.05-.07.05-.11,0-.08.01-.14.01-.18v-2.94l-1.3,3.57h-.29l-1.31-3.52v2.83c0,.14.01.24.04.29.02.05.06.09.12.12s.15.04.28.04h.09v.24h-1.41v-.24h.08c.14,0,.23-.01.29-.04s.1-.07.13-.12c.02-.05.04-.16.04-.31v-2.61c0-.15-.01-.24-.03-.29-.02-.05-.06-.08-.1-.11-.05-.02-.13-.03-.26-.03h-.14v-.24Z"/>
          </g>
          <g>
            <path class="cls-1" d="m35.26,99.04c-.97,1.42-2.57,1.64-3.76,1.64-1.71,0-3.15-.47-3.24-.5-.36-.13-.56-.5-.45-.88.13-.36.45-.58.88-.47,2.16.5,3.55.63,4.5.18.92-.41,1.26-1.17,1.24-1.94-.04-.63-.45-1.08-1.21-1.26-.67-.14-1.37-.11-2.02.07-.16.04-.22.16-.14.27.07.16.18.4.22.59.07.4-.18.83-.67.85-.31,0-.61-.22-.72-.56-.02-.11-.07-.25-.16-.4-.05-.14-.2-.2-.32-.13-.72.36-1.96,1.12-2.54,1.46-.13.05-.18.22-.13.34,1.06,2.5,2.2,5.35,2.54,6.19.18.52-.14.85-.41.94-.25.09-.68.11-.95-.4-.36-1.01-1.46-3.69-2.41-6.07-.04-.14-.18-.2-.31-.13-.18.09-.38.2-.58.27-1.08.47-1.91.72-2.57.72-.38.02-.7-.31-.72-.7,0-.41.32-.74.7-.74.58-.02,1.6-.38,2.65-.85.13-.05.18-.22.13-.32-.56-1.31-.97-2.34-1.08-2.54-.2-.38-.04-.81.31-.97.36-.18.77-.05.94.29.14.23.58,1.24,1.08,2.52.04.11.18.16.29.09.45-.25,1.48-.85,2.38-1.35.14-.04.16-.2.09-.31-.32-.43-.58-.72-.63-.76-.32-.25-.38-.68-.14-.99.22-.32.68-.38.99-.14.45.4.86.94,1.13,1.37.07.11.22.14.38.13.65-.27,2.68-.76,4.29.4,1.22.95,1.33,2.68.45,4.09Z"/>
            <path class="cls-1" d="m48.5,98.96c.05.02.09-.04.05-.09-.72-.86-1.48-1.91-1.78-2.32-.09-.11-.23-.18-.4-.14-1.98.4-3.4.49-4.99.5-.41,0-.72-.31-.72-.7,0-.36.31-.7.72-.7.85,0,2.57-.11,4.27-.45.13-.02.16-.13.11-.23-.34-.68-.67-1.51-.67-2.18,0-.41.32-.77.72-.79.41-.02.77.32.79.74.02.43.27,1.1.65,1.85.07.13.22.2.36.16.88-.27,1.66-.63,2.27-1.12.36-.22.77-.18,1.01.13.23.31.18.79-.13.99-.61.49-1.46.94-2.39,1.26-.11.04-.14.16-.09.25.85,1.21,1.98,2.5,3.21,3.64.29.27.32.74.09,1.03-.18.23-.47.32-.72.27-.2-.04-.34-.14-.52-.2-2.23-.97-4.59-1.21-6.01-.22-.63.47-.9,1.13-.76,1.98.27,1.26,2.5,2.27,6.28,1.04.4-.11.81.09.97.47.13.4-.04.81-.49.97,0,0-1.62.63-3.83.5-2.18-.14-3.91-.94-4.41-2.47-.58-2.43,1.71-5.31,6.41-4.18Zm3.75-6.45c.4.31.63.63.77.92.14.34.14.72-.25.94-.38.14-.74-.05-.9-.41-.13-.22-.38-.61-.77-.88-.27-.2-.5-.52-.31-.81.36-.5,1.13-.02,1.46.25Zm1.51-.88c.4.31.63.63.77.94.18.34.16.7-.23.9-.4.16-.74-.09-.9-.4-.11-.22-.38-.61-.77-.88-.27-.2-.49-.52-.31-.83.36-.49,1.12-.02,1.44.27Z"/>
            <path class="cls-1" d="m70.48,95.92c.2.34.09.77-.22.99-.74.41-1.62.83-2.61,1.13-.07,0-.09.02-.14.04-.14.04-.2.16-.14.27.22.49.47.92.7,1.31.29.49.49.58.65.79.18.23.34.59,0,1.03-.52.52-1.04.04-1.64-.07-.9-.23-3.73-.86-5.37.22-.67.36-.9,1.69,1.71,2.2.22.05.43.09.68.13,1.08.13,2.27.09,3.2-.18.4-.05.81.18.92.56.07.4-.18.79-.56.88-.74.18-1.53.27-2.36.27-.47,0-.92-.02-1.42-.09-1.3-.16-2.43-.58-3.11-1.17-.79-.63-.92-1.35-.88-1.82.05-.72.4-1.37.97-1.8.49-.36,1.15-.61,1.93-.76.63-.11,1.37-.14,2.18-.11.49.02.97.07,1.37.13.09,0,.14-.07.09-.16-.16-.31-.32-.67-.49-.99-.07-.14-.16-.22-.32-.18-.22.04-.45.05-.67.11-1.53.2-3.24.36-4.9.36-.38,0-.72-.34-.72-.72-.02-.4.32-.76.7-.76.76,0,2.86-.04,5.06-.43.11-.02.16-.13.13-.23-.09-.22-.14-.43-.22-.63-.05-.2-.13-.34-.18-.52-.04-.13-.16-.2-.31-.16-2.09.43-3.55.4-3.91.32-.34-.11-.49-.45-.45-.79.04-.34.29-.59.79-.59.99.04,2.05-.07,3.21-.32.13-.04.2-.14.16-.25-.2-.76-.32-1.37-.32-1.69,0-.38.31-.7.7-.7s.72.32.72.7c0,.16.09.65.27,1.35.04.13.16.18.27.14.49-.18,1.01-.38,1.57-.58.38-.11.77.11.9.45.11.36-.13.79-.47.92-.4.13-.76.27-1.1.4-.2.05-.34.09-.49.14-.14.04-.2.16-.14.27.02.14.07.27.13.43.11.29.2.54.27.77.05.14.18.22.31.16,1.22-.38,1.78-.56,2.54-1.01.34-.18.81-.09,1.01.25Z"/>
            <path class="cls-1" d="m76.37,99.32c.04-.74.65-1.31,1.39-1.31h10.73c.36,0,.65.29.65.67s-.29.65-.65.65h-10.46c-.2,0-.36.16-.36.34l-.31,5.94c-.02.36-.32.65-.7.65-.34,0-.63-.31-.61-.65l.32-6.28Zm10.91-7.27c.72,0,1.31.58,1.31,1.3v2.48c0,.74-.59,1.31-1.31,1.31h-9.2c-.72,0-1.3-.58-1.3-1.31v-2.48c0-.72.58-1.3,1.3-1.3h1.87c.14,0,.25-.11.25-.25v-.29c0-.36.29-.65.65-.65s.63.29.63.65v.29c0,.14.11.25.25.25h1.89c.14,0,.25-.11.25-.25v-.29c0-.36.29-.65.65-.65.34,0,.63.29.63.65v.29c0,.14.11.25.25.25h1.87Zm-7.08,1.53c0-.2-.14-.36-.34-.36h-1.57c-.18,0-.34.16-.34.36v.07c0,.2.16.36.34.36h1.57c.2,0,.34-.16.34-.36v-.07Zm-1.91,1.58c-.18,0-.34.16-.34.34v.11c0,.2.16.36.34.36h1.57c.2,0,.34-.16.34-.36v-.11c0-.18-.14-.34-.34-.34h-1.57Zm9.24,4.74c.34,0,.61.27.61.59,0,.34-.27.61-.61.61h-8.03c-.34,0-.61-.27-.61-.61,0-.32.27-.59.61-.59h8.03Zm-1.78,4.16c.41-.34.94-.54,1.48-.54h.16c.34,0,.5.43.23.65l-.76.63c-.13.11-.13.32,0,.45l.72.56c.25.22.11.65-.23.65-.65,0-1.28-.23-1.78-.63l-3.31-2.67c-.16-.14-.38-.22-.61-.22h-1.13c-.18,0-.34.14-.34.34v1.55c0,.13.11.22.23.22h.22c.34,0,.63.29.63.65,0,.34-.29.63-.63.63h-.54c-.65,0-1.17-.52-1.17-1.17v-2.16c0-.74.59-1.31,1.31-1.31h7.65c.36,0,.63.29.63.63s-.27.63-.63.63h-3.57c-.13,0-.16.14-.07.22l1.17.92c.11.07.25.07.34-.02Zm-1.87-10.48c0-.2-.16-.36-.34-.36h-1.71c-.18,0-.34.16-.34.36v.07c0,.2.16.36.34.36h1.71c.18,0,.34-.16.34-.36v-.07Zm0,1.93c0-.18-.16-.34-.34-.34h-1.71c-.18,0-.34.16-.34.34v.11c0,.2.16.36.34.36h1.71c.18,0,.34-.16.34-.36v-.11Zm3.53-1.93c0-.2-.14-.36-.34-.36h-1.57c-.18,0-.34.16-.34.36v.07c0,.2.16.36.34.36h1.57c.2,0,.34-.16.34-.36v-.07Zm-2.25,2.03c0,.2.16.36.34.36h1.57c.2,0,.34-.16.34-.36v-.11c0-.18-.14-.34-.34-.34h-1.57c-.18,0-.34.16-.34.34v.11Z"/>
            <path class="cls-1" d="m93.02,92.28c0-.72.58-1.3,1.3-1.3h12.77c.72,0,1.3.58,1.3,1.3v12.84c0,.72-.58,1.31-1.3,1.31h-12.77c-.72,0-1.3-.59-1.3-1.31v-12.84Zm13.59,12.75c.2,0,.36-.16.36-.34v-11.96c0-.18-.16-.34-.36-.34h-11.85c-.2,0-.36.16-.36.34v11.96c0,.18.16.34.36.34h11.85Zm-1.85-9.25c.34,0,.61.27.61.63s-.27.61-.61.61h-8.14c-.34,0-.61-.27-.61-.61,0-.36.27-.63.61-.63h3.1c.18,0,.34-.16.34-.36v-.09c0-.18-.16-.34-.34-.34h-2.43c-.34,0-.61-.29-.61-.63s.27-.63.61-.63h2.61c.09,0,.16-.07.16-.14,0-.32.27-.59.59-.59h.07c.32,0,.59.27.59.59,0,.07.07.14.16.14h2.61c.34,0,.61.29.61.63s-.27.63-.61.63h-2.43c-.18,0-.34.16-.34.34v.09c0,.2.16.36.34.36h3.1Zm-4.99,6.27c0-.13-.16-.2-.25-.11l-1.03,1.01c-.43.41-1.01.63-1.58.63-.31,0-.49-.43-.27-.63l1.76-1.75c.09-.07.04-.23-.09-.23-.7,0-1.26-.56-1.26-1.24v-.79c0-.74.59-1.31,1.31-1.31h4.65c.72,0,1.31.58,1.31,1.31v.74c0,.72-.59,1.3-1.31,1.3h-.72c-.11,0-.16.16-.07.23l.76.59c.07.05.18.05.23-.02.27-.25.63-.41,1.01-.41h.31c.32,0,.49.4.27.65l-.4.4c-.13.14-.11.36.04.47l.43.34c.27.22.13.65-.22.65-.68,0-1.35-.23-1.89-.65l-1.48-1.13c-.13-.07-.29,0-.29.14v1.55c0,.34-.27.61-.61.61s-.61-.27-.61-.61v-1.73Zm-1.12-3.19c-.18,0-.34.14-.34.34v.22c0,.18.16.34.34.34h4.07c.18,0,.34-.16.34-.34v-.22c0-.2-.16-.34-.34-.34h-4.07Z"/>
          </g>
          <path class="cls-1" d="m17.31,100.53c-.7-.4-1.42-.76-2.12-1.06-.14-.05-.2-.18-.16-.34.22-.95.29-1.8.31-2.57.02-.34-.18-.74-.67-.77-.4-.02-.74.25-.76.67,0,.5-.02,1.24-.23,2.21-.04.11-.13.16-.25.13-1.03-.38-2.09-.67-3.01-.79-.13-.02-.2-.13-.14-.23.36-.83,1.06-2.47,1.28-3.19.27-.99,0-1.57-.29-1.82-.27-.22-.83-.49-1.66-.22-.67.23-1.96.36-2.84.49-.4.02-.65.4-.63.76.02.41.34.65.7.65,1.57-.09,2.68-.56,3.26-.65.11-.02.2.09.16.2-.23.81-.95,2.74-1.42,3.64-.05.13-.22.2-.36.2-3.44.04-4.92,1.8-4.79,3.49.18,1.76,2.41,2.59,3.67,1.42.61-.63,1.3-1.71,2.11-3.22.05-.13.18-.2.34-.18.81.11,1.89.34,3.17.79.14.04.2.16.14.29-.59,1.31-1.62,2.7-3.48,3.69-.36.13-.47.61-.29.92.2.32.59.49.95.27,1.91-1.01,3.28-2.48,4.12-4.38.05-.11.16-.14.29-.11.59.27,1.24.56,1.93.94.4.16.77.04.95-.25.14-.29.09-.74-.29-.95Zm-10.02.38c-.64.81-1.5,1.2-1.94.86-.44-.34-.28-1.28.36-2.1.29-.38.68-.42.89-.41.11,0,.23-.02.34-.08.02-.01.05-.02.07-.03.08-.03.15-.07.22-.12.06-.05.16-.09.24-.13.12-.06.24-.02.3.09.21.4.08,1.23-.48,1.94Z"/>
          <path class="cls-1" d="m114.38,101.28c1.52,0,2.69,1.16,2.69,2.64s-1.17,2.66-2.69,2.66-2.69-1.17-2.69-2.66,1.22-2.64,2.69-2.64Zm0,4.78c1.19,0,2.06-.94,2.06-2.13s-.88-2.14-2.07-2.14-2.06.96-2.06,2.14c0,1.27.98,2.13,2.07,2.13Zm-1.01-.75v-2.68c.25-.04.56-.09.98-.09.48,0,1.17.09,1.17.78,0,.32-.25.54-.55.62v.04c.26.09.39.3.46.65.09.41.15.56.2.67h-.61c-.07-.1-.13-.33-.2-.67-.1-.42-.33-.42-.88-.42v1.09h-.58Zm.59-1.51c.45,0,.94,0,.94-.41,0-.25-.17-.42-.59-.42-.17,0-.29.01-.35.03v.8Z"/>
        </g>
      </g>
      <rect class="cls-3" width="120" height="120"/>
    </g>
  </g>
</svg>