<?xml version="1.0" encoding="UTF-8"?>
<svg id="_レイヤー_2" data-name="レイヤー 2" xmlns="http://www.w3.org/2000/svg" viewBox="0 0 297.16 22.51">
  <defs>
    <style>
      .cls-1 {
        fill: #fff;
      }
    </style>
  </defs>
  <g id="_レイヤー_" data-name="&amp;lt;レイヤー&amp;gt;">
    <g>
      <path class="cls-1" d="m6.91,2.3c-.51,1.32-1.03,2.52-1.54,3.57.12.15.17.32.17.51v15.11c0,.46-.37.83-.83.83s-.83-.37-.83-.83v-13c-1.15,1.86-2.22,3.28-3.23,4.23-.32.29-.83-.12-.59-.51,1.98-3.03,4.2-7.65,5.33-11.2.29-.93,1.54-1.12,2.03-.24.34.61.07,1.25-.51,1.54Zm14.59,3.59H7.81c-.29,0-.54-.24-.54-.54s.24-.56.54-.56h12.74c.02-.51.46-.93.98-.93s.95.46.95,1c0,.59-.46,1.03-.98,1.03Zm-1.17,15.69c0,.49-.39.88-.88.88s-.9-.39-.9-.88v-.39h-7.85v.34c0,.49-.37.86-.86.86s-.88-.37-.88-.86v-6.11c0-.88,1.17-1.2,1.61-.44h8.09c.44-.78,1.66-.49,1.66.44v6.16Zm-1.44-12.37h-9.39c-.29,0-.51-.22-.51-.51s.22-.51.51-.51h8.53c.07-.42.44-.73.88-.73.49,0,.88.39.88.88,0,.54-.44.88-.9.88Zm.15,3.32h-9.51c-.29,0-.51-.24-.51-.54s.22-.49.51-.49h8.65c.07-.42.42-.76.86-.76.49,0,.88.39.88.88,0,.54-.42.9-.88.9Zm.22-10h-9.66c-.29,0-.51-.24-.51-.54s.22-.54.51-.54h8.75c.05-.46.44-.83.93-.83.51,0,.9.42.9.93s-.39.98-.93.98Zm-8.56,17.65h7.85v-4.2h-7.85v4.2Z"/>
      <path class="cls-1" d="m35.56,21.07c-3.28,0-5.23-2.03-5.23-5.43,0-1.56.1-4.4.17-6.67l.07-3.5c.05-.95.1-1.98-.93-2.76-.22-.17-.24-.46-.1-.68.15-.17.37-.22.59-.12,2.52,1.15,2.3,2.59,2.22,3.57-.07.71-.15,2.1-.17,2.74-.12,2.2-.32,5.52-.32,7.26,0,2.71,1.2,4.03,3.69,4.03,2.81,0,5.16-1.12,8.14-3.86.17-.17.44-.17.61-.02.22.2.22.49.05.68-2.96,3.4-5.5,4.77-8.8,4.77Zm5.06-13.15c-.42-.02-.76-.37-.73-.78-.37-.64-1-1.3-1.66-1.78-.15-.1-.2-.29-.15-.46.1-.2.32-.32.54-.22,1,.39,2.03,1.05,2.66,2.05.34.54,0,1.22-.66,1.2Zm2.88-1.42c-.44-.02-.78-.37-.76-.81-.37-.56-1.12-1.34-1.88-1.88-.12-.1-.2-.29-.12-.46.1-.2.32-.29.51-.22,1.42.49,2.57,1.25,3.01,2.27.24.54-.2,1.12-.76,1.1Z"/>
      <path class="cls-1" d="m57,21.39c-.27,0-.46-.2-.49-.46,0-.24.2-.49.46-.49,5.89-.22,9.56-2.1,9.56-4.99,0-.88-.29-1.61-.83-2.15-.64-.64-1.64-.95-2.84-.93-2.66.02-4.16,1.71-5.23,2.93-.71.78-1.27,1.42-2,1.42-.51,0-1.22-.78-1.22-1.61,0-.2.05-.54.1-1.08.15-1.39.34-3.69.27-6.11-.07-1.76.17-2.4.56-2.88.17-.2.46-.22.68-.05.15.12.2.32.15.49-.05.2-.02.34.05.71.07.39.17.93.17,1.81,0,2.98-.27,4.74-.44,5.7-.05.34-.12.61-.12.76,0,.12.02.17.17.17.12-.05.42-.32.66-.56,1.08-1,3.06-2.86,6.58-2.91,1.52-.02,2.84.44,3.74,1.32.78.78,1.22,1.83,1.22,2.98,0,2.22-1.47,5.94-11.2,5.94Zm4.82-16.45c-.22,0-.34-.07-.51-.17-.27-.15-1.08-.24-2.93-.1-.27.02-.51-.2-.51-.46,0-.22.17-.42.42-.46.64-.1,1.25-.17,1.78-.22-.81-.56-1.88-.98-3.06-1.15-.24-.05-.42-.24-.42-.49s.22-.46.49-.46c2.62.07,4.28.73,5.38,2.18.1.15.17.34.17.54,0,.44-.37.81-.81.81Z"/>
      <path class="cls-1" d="m96.53,17.04c-1.05.98-2.84,2.18-4.3,2.37-1.08.15-1.98-.05-2.62-.59-.66-.56-1-1.44-1.03-2.64-.05-1.49.78-5.77,1.15-7.85l.2-1.03c.12-.54,0-.93-.17-1.12-.15-.17-.42-.27-.81-.27-1.1,0-3.37,1.2-8.09,6.14-.02.27-.02.51-.02.68.02.51.07,1.34.15,2.32.15,2.37.32,5.35.1,6.55-.07.39-.37.68-.78.68-.44,0-.81-.37-.81-.81,0-.15.05-.32.15-.44-.34-1.98-1.83-4.55-2.2-5.23-.37.44-.76.88-1.12,1.3-.07.37-.39.64-.78.64-.44,0-.78-.37-.78-.81,0-.2.07-.39.2-.54.66-.78,1.81-2.08,3.2-3.54.59-1.12,1.08-2.32,1.54-3.5.02-.56.07-1.12.1-1.69-.51.1-1.12.17-1.71.24-.51.05-.98.12-1.25.2-.61.15-.95.37-1,.46-.05.22-.24.39-.46.39-.27,0-.46-.2-.46-.44-.02-.71.73-1.47,1.61-1.69.27-.07.73-.15,1.27-.24.64-.1,1.47-.24,2.1-.39.05-.95.15-1.96.15-2.88,0-.56-.22-1.22-.73-1.42-.2-.07-.32-.24-.32-.44,0-.27.22-.46.49-.46,1.17.02,2.03,1,2.08,2.37,0,.27-.07,1.15-.22,2.62.39.2.76.56.88.73.24.39.12.71-.1.88-.27.2-.64.86-1.05,1.66l-.07.73c2.81-2.69,5.89-5.11,7.92-5.3.88-.07,1.61.17,2.1.66.32.34.71.93.54,1.91-.07.37-.15.86-.22,1.2-.37,2.03-1.17,6.28-1.15,7.68.05,1.52.49,1.96,1.91,1.93,1.12-.02,3.03-1.17,3.84-1.76.22-.15.51-.1.66.1.15.2.12.46-.05.64Zm-16.89-2.4c-.02-.37-.02-.9-.05-1.25-.49.56-1.03,1.15-1.59,1.78.12.02.22.1.27.2.64,1.1,1.12,2.05,1.52,2.84-.02-1.2-.12-2.52-.15-3.57Z"/>
      <path class="cls-1" d="m108.88,20.97c-2.81-.05-4.11-1.71-4.11-2.81,0-1.03,1.12-2.15,2.74-2.15,1.47,0,3.15,1.37,3.54,3.37,2.64-.64,3.91-2.37,3.98-4.01.05-1.05-.15-2.1-.9-2.88-.76-.81-2.03-1.22-3.59-1.22-3.79,0-6.75,3.1-7.5,3.98-.1.29-.37.51-.71.51-.42,0-.76-.34-.76-.76,0-.22.07-.34.2-.51.02-.05.2-.24.46-.54,1.83-2.05,4.89-5.16,6.94-7.31.46-.46,1.42-1.44,1.93-1.98.1-.1.39-.42.37-.59-.02-.02-.12-.07-.42-.07-.93,0-2.1.34-3.13.64-.86.24-1.59.46-2.13.46-.86,0-1.76-.46-2.25-1-.17-.2-.17-.49.02-.66.12-.12.29-.15.44-.12.49.12,1.3.2,1.98.2.42,0,1.34-.2,2.35-.39,1.37-.27,2.91-.56,3.96-.56.93,0,1.49.24,1.66.76.17.54-.2,1.1-.64,1.42-1.12.88-3.69,3.3-6.14,5.87,1.05-.39,2.22-.64,3.5-.64,1.98,0,3.59.59,4.67,1.71.93.95,1.37,2.22,1.32,3.72-.15,3.3-3.4,5.62-7.8,5.57Zm-1.39-3.69c-.51-.05-.95.07-1.25.37-.15.12-.24.27-.24.42,0,.66.98,1.61,2.74,1.61.29,0,.59-.02.86-.05-.22-1.3-1.08-2.27-2.1-2.35Z"/>
      <path class="cls-1" d="m144.42,18.38c-.27-.1-.51-.17-.76-.27.1.76-.68,1.34-1.39,1.03-3.54-1.61-6.28-4.94-7.9-9.04v11.56c0,.49-.37.86-.86.86s-.88-.37-.88-.86v-10.41c-2.4,3.94-5.72,6.84-9.14,8.65-.44.24-.83-.34-.44-.66,3.45-2.86,6.45-6.23,8.9-10.27h-8.43c-.29,0-.56-.27-.56-.56s.27-.56.56-.56h9.09V.88c0-.49.42-.88.9-.88s.88.39.88.88v6.97h7.53c.05-.49.49-.86.98-.86.54,0,.98.44.98.98s-.46.98-1,.98h-8.02c1.59,3.37,4.91,7.06,9.8,8.7.2.07.32.29.24.49-.07.2-.29.32-.49.24Zm-14.81-11.83c-.68.15-1.3-.42-1.22-1.08-.44-.78-1.44-2.25-1.96-3.01-.34-.51.15-.81.49-.61,2.03,1.12,3.32,2.44,3.45,3.5.07.54-.22,1.08-.76,1.2Zm10.32-3.06c-.93,1.05-2.44,2.59-3.42,3.52-.46.44-.93-.07-.68-.44.76-1.2,1.98-3.23,2.86-4.74.49-.83,1.83-.66,2.05.37.12.56-.24,1.15-.81,1.3Z"/>
      <path class="cls-1" d="m161.68,12.78c-.78.29-1.61.59-2.42.9v.56c0,.66-.05,1.74,0,2.22,0,.05.02.12.02.2,0,.44-.37.78-.81.78-.42,0-.73-.32-.78-.73-.02-.37-.05-1.27-.02-2.37-2.3,1.03-4.16,2.25-4.16,3.81,0,1.27,1.74,1.86,5.62,1.86,1.93,0,3.72-.42,4.18-.51.15-.1.29-.15.46-.15.46,0,.81.37.81.81,0,.39-.27.71-.64.81-.83.22-2.66.61-4.82.61-1.74,0-7.09,0-7.09-3.32,0-2.25,2.64-3.94,5.62-5.3-.07-2.2-.59-2.98-1.88-2.98-.59,0-1.69.73-2.76,1.61-.56.61-1.2,1.2-1.93,1.76-.15.22-.37.37-.64.37-.42,0-.76-.34-.76-.76,0-.29.12-.44.29-.59.27-.27.9-.83,1.34-1.17,1.71-1.66,2.74-3.42,3.47-5.43-.51,0-.93.02-1.2,0-1.12-.05-2.62-.51-3.32-.76-.27-.1-.39-.37-.29-.61.07-.2.27-.32.49-.32,1,.1,3.06.22,3.76.22h1.03c.12-.44.56-2.03.56-2.4,0-.39-.39-.81-.56-.95-.1-.1-.17-.22-.17-.37,0-.1.05-.22.12-.29.12-.15.29-.2.46-.17.32.1,1.76.51,1.76,1.42,0,.44-.49,2.15-.64,2.66.98-.1,1.74-.27,2.15-.46.15-.24.42-.44.73-.44.46,0,.83.39.83.86,0,.29-.15.54-.37.71-.61.46-2.27.71-3.81.83-.42,1.27-.93,2.42-1.54,3.5.34-.1.66-.17.98-.17,1.15,0,2.98.46,3.4,3.25.64-.27,1.3-.54,1.91-.78,1.96-.81,4.16-1.69,4.45-2.27.17-.39-.34-.81-.66-.9-.27-.07-.39-.34-.32-.59.1-.27.37-.39.61-.32.68.24,2.47,1.2,2.1,2.3-.39,1.22-2.69,2.05-5.6,3.08Z"/>
      <path class="cls-1" d="m176.17,20.84c-.49,0-.85-.47-.73-.94-.43-.77-1.46-1.67-2.38-2.2-.16-.12-.24-.33-.14-.51.1-.18.31-.26.51-.16.28.14.59.26.88.37,1.06.43,2.28.9,2.6,2.52.1.47-.26.92-.75.92Z"/>
      <path class="cls-1" d="m211.27,7.04c0,.46-.37.83-.83.83-.56,0-.83-.44-.83-.95h-13.86c-.07,5.4-.64,10.34-4.06,13.76-.37.37-.9-.07-.61-.51,2.96-4.6,2.88-10.76,2.88-16.72v-1.64c0-1.03,1.22-1.42,1.74-.61h14.01c.42-.73,1.56-.44,1.56.42v5.43Zm-15.52-1.15h13.86v-3.67h-13.86v3.67Zm15.94,15.55c0,.46-.37.83-.83.83s-.83-.37-.83-.83v-.17h-11.12v.34c0,.44-.39.81-.83.81s-.81-.37-.81-.81v-9.73c0-.81,1.05-1.1,1.49-.44h4.77v-3.28c0-.44.39-.81.83-.81s.81.37.81.81v3.28h4.99c.44-.68,1.54-.39,1.54.44v9.56Zm-12.79-5.87h4.64v-3.15h-4.64v3.15Zm0,4.69h4.64v-3.72h-4.64v3.72Zm6.26-4.69h4.87v-3.15h-4.87v3.15Zm0,4.69h4.87v-3.72h-4.87v3.72Z"/>
      <path class="cls-1" d="m220.34,16.84c0,.54.1.73.39,1.22.22.17.34.42.34.71,0,.51-.44.95-.95.95-.37,0-.71-.24-.86-.54-.83-1.27-1.32-3.84-1.32-7.09,0-2.13.51-4.23.93-5.94.22-.9.42-1.71.44-2.22.05-.61-.07-1.25-.17-1.83-.07-.39.54-.73.86-.29.49.66,1.08,1.71,1.08,2.47,0,.59-.24,1.27-.59,2.18-.49,1.37-1.17,3.23-1.17,5.48,0,1.2.12,2.2.29,3.06.24-.78.56-1.54.9-2.3.1-.24.39-.34.61-.24.25.12.37.39.25.64-.81,1.81-1.03,2.98-1.03,3.76Zm15.67-9.12c-.71.49-2,.81-3.47,1,.1,7.21-.24,11.07-7.28,13.08-.25.07-.49-.05-.56-.29-.1-.24.02-.49.27-.59,6.04-2.15,5.99-6.55,5.99-12.03-1.59.15-3.2.2-4.4.17-1.25-.05-2.74-.07-3.15.15-.24.1-.51.05-.66-.17-.15-.22-.07-.51.15-.64.73-.46,2.96-.88,3.64-.88.56,0,2.49-.05,4.4-.29,0-2.59-.1-4.45-.59-5.26-.22-.34.05-.86.56-.68,1.66.59,1.64,1.69,1.64,4.64v1.05c.93-.17,1.76-.39,2.3-.68.17-.22.44-.37.76-.37.51,0,.93.44.93.95,0,.37-.2.68-.51.83Z"/>
      <path class="cls-1" d="m250.55,7.53c-.88.1-1.86.34-2.74.56l-1.03,4.03c-.88,3.37-1.78,6.84-2.1,8.7-.07.39-.42.71-.83.71-.46,0-.86-.39-.86-.86,0-.15.05-.29.12-.42.17-1.17.81-3.42,1.52-6.01.54-1.91,1.1-3.96,1.56-5.79-.66.12-1.27.22-1.81.22-1.22,0-1.86-.46-2.54-1.05-.17-.17-.25-.44-.1-.64.15-.22.44-.27.66-.12.29.2.95.42,2.35.32.56-.02,1.17-.17,1.81-.32.22-1.08.39-1.98.42-2.64.07-1.37.02-1.76-.59-2.05-.17-.1-.29-.32-.25-.54.07-.24.32-.42.59-.34,1.52.37,2.25,1.37,1.98,2.81-.1.61-.29,1.39-.51,2.32.64-.15,1.29-.27,1.93-.34.1-.05.22-.1.34-.1.42,0,.76.37.76.78,0,.39-.29.71-.68.76Zm9.22,13c-.66.05-2.27.22-4.01.12-3.2-.15-4.67-1.66-4.62-4.79.02-.22.2-.44.44-.46.27,0,.49.17.51.44.17,2.13,1.34,3.1,3.74,3.2,1.69.05,2.98-.07,3.54-.15.12-.07.24-.1.39-.1.46,0,.86.39.86.88s-.37.81-.86.86Zm-.29-10.83c-.27,0-.51-.12-.66-.34-.24-.07-.88-.17-2.4.29-.32.1-.63-.15-.63-.44,0-.22.15-.39.34-.46.34-.1.64-.2.93-.27-.49-.1-.93-.12-1.2-.12-.54,0-1.83.15-2.49.24-.27.05-.51-.15-.54-.39-.05-.22.1-.44.29-.51.64-.24,2.15-.73,3.01-.73,1.88,0,3.28.46,3.94,1.49.12.15.2.29.2.49,0,.42-.34.76-.78.76Z"/>
      <path class="cls-1" d="m272.41,17.75c.1.93-.02,1.56-.37,1.86-.22.17-.49.27-.76.15-2-.83-4.3-3.79-4.3-8.51,0-1.39.15-2.69.27-3.74.07-.71.15-1.34.15-1.78.02-.9.17-1.64-.15-2-.29-.32-.07-.83.39-.78.46.05,1.74.83,1.74,2.25,0,.51-.17,1.22-.34,2.03-.24,1.1-.56,2.47-.56,3.76,0,1.39.51,5.06,2.32,5.96.22-.12.86-1.12,1.76-2.69l.76-1.3c.12-.22.42-.29.64-.17.22.15.32.42.17.66-.88,1.56-1.83,3.3-1.71,4.3Zm11.39-2.86c-.54,0-.95-.42-.95-.95,0-.12.02-.22.05-.32-.02-2.57-1.15-4.69-3.03-5.72-.2-.1-.29-.34-.22-.54.07-.27.34-.42.59-.32,2.86.86,4.35,3.42,4.52,6.87.02.54-.42.98-.95.98Z"/>
      <path class="cls-1" d="m294.37,21.41c-1.55,0-2.81-1.26-2.81-2.81s1.26-2.81,2.81-2.81,2.79,1.28,2.79,2.81-1.26,2.81-2.79,2.81Zm0-4.6c-1,0-1.81.81-1.81,1.79s.81,1.79,1.81,1.79,1.79-.79,1.79-1.79-.81-1.79-1.79-1.79Z"/>
    </g>
  </g>
</svg>