<?xml version="1.0" encoding="utf-8"?>
<!-- Generator: Adobe Illustrator 27.5.0, SVG Export Plug-In . SVG Version: 6.00 Build 0)  -->
<svg version="1.1" id="_レイヤー_2" xmlns="http://www.w3.org/2000/svg" xmlns:xlink="http://www.w3.org/1999/xlink" x="0px"
	 y="0px" viewBox="0 0 10.1 9.4" style="enable-background:new 0 0 10.1 9.4;" xml:space="preserve">
<style type="text/css">
	.st0{fill:#7E1B28;}
</style>
<g id="_文字">
	<g>
		<path class="st0" d="M0.8,0.5c0.1,0,0.1,0,0.2,0l0.1,0h0.1c0.1,0,0.2,0.1,0.6,0.2l0,0l0,0C2,0.9,2.1,1,2.2,1
			c0.1,0.1,0.3,0.1,0.4,0.2l0.1,0h0c0.1,0,0.2,0.1,0.3,0.1c0.3,0.1,0.6,0.1,0.9,0.1c0.1,0,0.3,0,0.4-0.1c0.2,0,0.4,0,0.5,0
			c0.9,0,1.6,0.3,2.2,0.9c2.4,2.4,3.1,5.2,2.1,6.2C8.8,8.7,8.4,8.9,7.8,8.9C6.4,8.9,4.5,8,3,6.4C0.9,4.4,0.2,1.9,0.7,0.7l0,0l0,0
			C0.7,0.6,0.7,0.5,0.8,0.5 M0.8,0C0.5,0,0.3,0.2,0.2,0.5c-0.6,1.4,0.2,4.1,2.4,6.3c1.7,1.7,3.7,2.6,5.2,2.6c0.7,0,1.3-0.2,1.7-0.6
			c1.3-1.3,0.4-4.4-2.1-6.9c-0.8-0.8-1.8-1-2.6-1c-0.2,0-0.4,0-0.6,0c-0.1,0-0.2,0-0.3,0c-0.2,0-0.5-0.1-0.8-0.1
			C3,0.8,2.9,0.7,2.8,0.7C2.5,0.6,2.3,0.5,2,0.4C1.8,0.3,1.4,0.1,1.2,0.1C1.1,0,0.9,0,0.8,0L0.8,0z"/>
	</g>
</g>
</svg>
